<svg id="Layer_1" data-name="Layer 1" xmlns="http://www.w3.org/2000/svg" viewBox="0 0 70.04 70.7"><defs><style>.cls-1{fill:#f1a803;}</style></defs><title>call</title><path class="cls-1" d="M708.71,1479.14l2.14-2.36a9.83,9.83,0,0,0-.7-13.87l-3.6-3.26a9.82,9.82,0,0,0-13.87.69l-2.14,2.36a9.86,9.86,0,0,0-.78,1l-.1.1c-2,1.73-3.73,5.92-2.74,11.06a55.11,55.11,0,0,0,49,44.29,13.85,13.85,0,0,0,8.44-1.76,10.07,10.07,0,0,0,2.4-1.94l2.14-2.36a9.84,9.84,0,0,0-.7-13.87l-3.61-3.26a9.8,9.8,0,0,0-13.86.7l-2.14,2.36a10,10,0,0,0-2,3.45l-.19.57-.56-.22a41.35,41.35,0,0,1-21.86-20.06l-.3-.61.65-.2A9.76,9.76,0,0,0,708.71,1479.14Z" transform="translate(-686.63 -1448.52)"/><path class="cls-1" d="M720.7,1450.81a2.3,2.3,0,0,0,2.29,2.29,29.13,29.13,0,0,1,29.1,29.1,2.29,2.29,0,0,0,4.58,0A33.72,33.72,0,0,0,723,1448.52,2.3,2.3,0,0,0,720.7,1450.81Z" transform="translate(-686.63 -1448.52)"/><path class="cls-1" d="M720.33,1462a2.3,2.3,0,0,0,2.29,2.29,18.28,18.28,0,0,1,18.27,18.27,2.29,2.29,0,0,0,4.58,0,22.88,22.88,0,0,0-22.85-22.85A2.3,2.3,0,0,0,720.33,1462Z" transform="translate(-686.63 -1448.52)"/></svg>