<svg id="Layer_1" data-name="Layer 1" xmlns="http://www.w3.org/2000/svg" viewBox="0 0 64.31 65.66"><defs><style>.cls-1{fill:#f1a803;}</style></defs><title>downloads</title><path class="cls-1" d="M752.46,1370.27h-6.14a1,1,0,0,0-1,1V1380H697.26v-8.72a1,1,0,0,0-1-1h-6.14a1,1,0,0,0-1,1v15.86a1,1,0,0,0,1,1h62.33a1,1,0,0,0,1-1v-15.86A1,1,0,0,0,752.46,1370.27Z" transform="translate(-689.14 -1322.47)"/><rect class="cls-1" x="21.37" width="21.57" height="7.55" rx="1.16"/><path class="cls-1" d="M708.15,1359.09l11.15,13.07a3,3,0,0,0,4,0l11.14-13.07L745.59,1346c.89-1-.22-2.34-2-2.34H731.9V1332.9a1,1,0,0,0-1-1H711.35a1,1,0,0,0-1,1v10.79H699c-1.78,0-2.89,1.3-2,2.34Z" transform="translate(-689.14 -1322.47)"/></svg>