<svg id="Layer_1" data-name="Layer 1" xmlns="http://www.w3.org/2000/svg" viewBox="0 0 35.38 35.38"><defs><style>.cls-1{fill:#fff;}</style></defs><title>Untitled-1</title><path d="M737.35,1480.34a17.7,17.7,0,1,0-20.46,17.48v-12.36H712.4v-5.12h4.49v-3.89c0-4.44,2.64-6.89,6.68-6.89a26.79,26.79,0,0,1,4,.35v4.35H725.3a2.56,2.56,0,0,0-2.88,2.77v3.31h4.91l-.79,5.12h-4.12v12.36A17.7,17.7,0,0,0,737.35,1480.34Z" transform="translate(-701.96 -1462.65)"/><path class="cls-1" d="M726.54,1485.46l.79-5.12h-4.91V1477a2.56,2.56,0,0,1,2.88-2.77h2.23v-4.35a26.79,26.79,0,0,0-4-.35c-4,0-6.68,2.45-6.68,6.89v3.89H712.4v5.12h4.49v12.36a17.49,17.49,0,0,0,5.53,0v-12.36Z" transform="translate(-701.96 -1462.65)"/></svg>