<svg id="Layer_1" data-name="Layer 1" xmlns="http://www.w3.org/2000/svg" viewBox="0 0 60.4 80.46"><defs><style>.cls-1{fill:#f1a803;}</style></defs><title>faq</title><path class="cls-1" d="M720.3,1377c-.12.12-.25.23-.37.33l-.39.33-.84.63-5.94,12.19-1.18-7,1.75-2.82-.64.13c-.55.09-1.12.16-1.69.2-.31,0-.63,0-1,0a15.23,15.23,0,0,1-3.53-.42l1.78,2.88-1.11,7.15-6.58-12.92c-.3-.24-.59-.49-.88-.76l-.12.11c-6.38,5.52-8.07,14-8.51,18.52h37.29C727.16,1382.43,721.71,1377.93,720.3,1377Z" transform="translate(-691.1 -1315.07)"/><path class="cls-1" d="M710.05,1351.66a14.14,14.14,0,1,0,14.14,14.14A14.15,14.15,0,0,0,710.05,1351.66Z" transform="translate(-691.1 -1315.07)"/><path class="cls-1" d="M750.54,1386.21a.25.25,0,0,0,.12-.24.27.27,0,0,0-.15-.23s-2.39-1.25-3-2.9a5.49,5.49,0,0,0,3.1,1.39.28.28,0,0,0,.27-.1.28.28,0,0,0,0-.28,48.4,48.4,0,0,1-2.43-10c-.36-2.1-.72-4.15-1.2-6a10.35,10.35,0,0,0-.72-2.27,10.62,10.62,0,0,0-1.24-2.4,8.08,8.08,0,0,0-5.23-3.45,10.81,10.81,0,0,0-3.34-.53,9.73,9.73,0,0,0-6.06,2.07A9.38,9.38,0,0,0,727,1366a16.33,16.33,0,0,0-1.24,4,11.12,11.12,0,0,0-.12,1.13c-.08.46-.16.93-.23,1.42a30,30,0,0,0,.36,8.18c1.87,3,3.73,7.67,4.39,14.79H751.5a26.45,26.45,0,0,0-2.16-8.64A9.62,9.62,0,0,0,750.54,1386.21Zm-6.55-1.7c-.17.21-3.51,2.39-3.51,2.39l1.64,2.24-5.2,4.08v0h0v0l-5.2-4.08,1.64-2.24s-3.34-2.18-3.5-2.39c-.3-.37,1.49-2.08,1.49-2.08l5.58,10.78,5.57-10.78S744.28,1384.14,744,1384.51Z" transform="translate(-691.1 -1315.07)"/><path class="cls-1" d="M734,1315.07H696.2a3.73,3.73,0,0,0-3.73,3.73v20.33a3.73,3.73,0,0,0,3.73,3.73h15.18l-.5,6.39,5.55-6.39H734a3.73,3.73,0,0,0,3.73-3.73V1318.8A3.73,3.73,0,0,0,734,1315.07Zm-17.15,18H698a.66.66,0,0,1,0-1.31h18.85a.66.66,0,1,1,0,1.31Zm14.93-4.52H698a.65.65,0,0,1-.65-.65.66.66,0,0,1,.65-.66h33.78a.66.66,0,0,1,.65.66A.65.65,0,0,1,731.74,1328.57Zm0-4.52H698a.65.65,0,0,1-.65-.65.66.66,0,0,1,.65-.66h33.78a.66.66,0,0,1,.65.66A.65.65,0,0,1,731.74,1324.05Z" transform="translate(-691.1 -1315.07)"/><path class="cls-1" d="M748,1333.09h-8.58v7.34a4,4,0,0,1-4,4H724v4.89a2.33,2.33,0,0,0,2.33,2.33h11.52l3.47,4-.31-4H748a2.33,2.33,0,0,0,2.34-2.33v-13.92A2.33,2.33,0,0,0,748,1333.09Z" transform="translate(-691.1 -1315.07)"/></svg>