<svg id="Layer_1" data-name="Layer 1" xmlns="http://www.w3.org/2000/svg" viewBox="0 0 80.67 77.1"><defs><style>.cls-1{fill:#f1a803;}</style></defs><title>forum</title><path class="cls-1" d="M743.93,1284.86a7.6,7.6,0,1,0,7.6,7.6A7.6,7.6,0,0,0,743.93,1284.86Z" transform="translate(-680.96 -1279.05)"/><path class="cls-1" d="M744.07,1279.05a17.56,17.56,0,0,0-16.78,22.74l-5.24,2.51a22.37,22.37,0,1,0-3.79,28.83l3.23,2.67a13.36,13.36,0,1,0,3-3.52l-3.15-2.62a22.29,22.29,0,0,0,3-20.69l5.18-2.49a17.56,17.56,0,1,0,14.51-27.43Zm-15.37,54.31a10.3,10.3,0,0,1,11.48,16.74c-.8-3.85-2.55-5.25-3-5.58l-.15.13-.16.14-.33.25-2.34,4.94-.51-2.83.7-1.14-.26.06a5.05,5.05,0,0,1-.68.08,2.42,2.42,0,0,1-.38,0,6.14,6.14,0,0,1-1.43-.15l.73,1.15-.42,2.88-2.7-5.17-.36-.3,0,0a10.33,10.33,0,0,0-3,5.44,10.52,10.52,0,0,1-2.13-3A10.31,10.31,0,0,1,728.7,1333.36Zm-19-10.26c-.15.18-3,2.07-3,2.07l1.42,1.93-4.49,3.53v0h0v0l-4.49-3.53,1.42-1.93s-2.89-1.89-3-2.07,1.29-1.81,1.29-1.81l4.83,9.33,4.83-9.33S710,1322.78,709.74,1323.1Zm5.35,5.86a18.52,18.52,0,0,0-2.38-6.27,31.45,31.45,0,0,0,.84-9.93c-.06-.43-.12-.83-.19-1.23a8.4,8.4,0,0,0-.11-1,13.84,13.84,0,0,0-1.07-3.45A8.15,8.15,0,0,0,709,1303a8.44,8.44,0,0,0-5.25-1.78,9.21,9.21,0,0,0-2.89.46,7,7,0,0,0-4.52,3,9.26,9.26,0,0,0-1.08,2.08,9.74,9.74,0,0,0-.62,2c-.42,1.58-.72,3.35-1,5.17a41.68,41.68,0,0,1-2.11,8.64.24.24,0,0,0,0,.24.25.25,0,0,0,.23.09,4.79,4.79,0,0,0,2.69-1.21,6.17,6.17,0,0,1-2.62,2.5.27.27,0,0,0-.13.2.29.29,0,0,0,.1.22,9.37,9.37,0,0,0,1,.59,20,20,0,0,0-1.29,3.82,17.15,17.15,0,1,1,23.51,0Zm38.39-22.73c-1-5.35-3.37-7.31-4-7.77l-.2.18-.21.18-.45.34-3.19,6.55-.64-3.78,1-1.51-.35.07a9,9,0,0,1-.91.1l-.51,0a8,8,0,0,1-1.9-.23l1,1.55-.6,3.84-3.53-6.94a6.12,6.12,0,0,1-.48-.41l-.06.06a13.73,13.73,0,0,0-4.12,7.27,13.47,13.47,0,1,1,19.28.48Z" transform="translate(-680.96 -1279.05)"/><path class="cls-1" d="M732.89,1334.37a5.69,5.69,0,1,0,5.76,5.63A5.69,5.69,0,0,0,732.89,1334.37Z" transform="translate(-680.96 -1279.05)"/><polygon class="cls-1" points="22.65 51.58 22.66 51.59 22.66 51.58 22.66 51.57 22.65 51.58"/></svg>