<svg id="Layer_1" data-name="Layer 1" xmlns="http://www.w3.org/2000/svg" viewBox="0 0 35.38 35.38"><defs><style>.cls-1{fill:#fff;}</style></defs><title>instagram</title><circle cx="17.69" cy="17.69" r="17.69"/><path class="cls-1" d="M673.08,1324.27a1.22,1.22,0,1,0,1.21,1.22A1.22,1.22,0,0,0,673.08,1324.27Z" transform="translate(-649.9 -1313.27)"/><path class="cls-1" d="M667.67,1325.83a5.11,5.11,0,1,0,5.11,5.11A5.11,5.11,0,0,0,667.67,1325.83Zm0,8.38a3.27,3.27,0,1,1,3.27-3.27A3.27,3.27,0,0,1,667.67,1334.21Z" transform="translate(-649.9 -1313.27)"/><path class="cls-1" d="M671.73,1341.31h-8.28a6.24,6.24,0,0,1-6.24-6.23v-8.28a6.24,6.24,0,0,1,6.24-6.23h8.28a6.24,6.24,0,0,1,6.23,6.23v8.28A6.24,6.24,0,0,1,671.73,1341.31Zm-8.28-18.79a4.28,4.28,0,0,0-4.28,4.28v8.28a4.28,4.28,0,0,0,4.28,4.28h8.28a4.28,4.28,0,0,0,4.28-4.28v-8.28a4.28,4.28,0,0,0-4.28-4.28Z" transform="translate(-649.9 -1313.27)"/></svg>