<svg id="Layer_1" data-name="Layer 1" xmlns="http://www.w3.org/2000/svg" viewBox="0 0 38 38"><title>language</title><path d="M57.59,1420a19,19,0,1,0,19,19A19,19,0,0,0,57.59,1420Zm16.32,17.69H66.76c-.18-5.92-1.55-11-3.67-14.11A16.42,16.42,0,0,1,73.91,1437.65Zm-16.32,17.7c-3,0-6.26-6.13-6.55-15.07h13.1C63.84,1449.22,60.55,1455.35,57.59,1455.35ZM51,1437.65c.29-8.94,3.58-15.06,6.55-15.06s6.25,6.12,6.55,15.06Zm1-14.11c-2.11,3.16-3.49,8.19-3.67,14.11H41.26A16.42,16.42,0,0,1,52.08,1423.54Zm-10.82,16.74h7.15c.18,5.92,1.56,11,3.67,14.11A16.41,16.41,0,0,1,41.26,1440.28Zm21.83,14.11c2.12-3.16,3.49-8.19,3.67-14.11h7.15A16.41,16.41,0,0,1,63.09,1454.39Z" transform="translate(-38.58 -1419.96)"/></svg>