<svg id="Layer_1" data-name="Layer 1" xmlns="http://www.w3.org/2000/svg" viewBox="0 0 49.38 60.6"><defs><style>.cls-1{fill:#f1a803;}</style></defs><title>registration</title><path class="cls-1" d="M700.22,1288.23a3.62,3.62,0,0,0-3.61,3.62v53.37a3.61,3.61,0,0,0,3.61,3.61h32.23v-7.09a5.67,5.67,0,0,1,5.67-5.67H746v-44.22a3.62,3.62,0,0,0-3.61-3.62Zm36.36,33.07H706v-2.49h30.56Zm0-8.7H706v-2.49h30.56Zm0-8.7H706v-2.48h30.56Z" transform="translate(-696.61 -1288.23)"/><path class="cls-1" d="M734.51,1341.74v5.73l9.91-9.34h-6.3A3.61,3.61,0,0,0,734.51,1341.74Z" transform="translate(-696.61 -1288.23)"/></svg>