<svg id="Layer_1" data-name="Layer 1" xmlns="http://www.w3.org/2000/svg" viewBox="0 0 44.3 75.68"><defs><style>.cls-1{fill:#f1a803;}</style></defs><title>repair</title><path class="cls-1" d="M743.8,1455.78a11.94,11.94,0,0,0-4.71-9.66.65.65,0,0,0-1.05.51V1455l-6.23,3.83-6.24-3.83v-8.34a.65.65,0,0,0-1-.52,12,12,0,0,0,2.51,20.53v33.87a12,12,0,0,0-2.51,20.51.65.65,0,0,0,1-.52v-8.33l6.24-3.83,6.23,3.83v8.33a.65.65,0,0,0,1.05.52,12,12,0,0,0-2.52-20.52v-33.87A12,12,0,0,0,743.8,1455.78Z" transform="translate(-699.5 -1445.98)"/><path class="cls-1" d="M712.56,1480.75h-3.74v-22.29l1.64-2.6-2-9.88h-4l-2,9.88,1.64,2.6v22.29h-3.75a1,1,0,0,0-.92,1v1.79a1,1,0,0,0,.92,1.05h.21a8.46,8.46,0,0,0-1.13,4.26V1514c0,4.24,3,7.68,6.74,7.68h.5c3.73,0,6.75-3.44,6.75-7.68V1488.9a8.46,8.46,0,0,0-1.13-4.26h.2a1,1,0,0,0,.93-1.05v-1.79A1,1,0,0,0,712.56,1480.75Zm-9.76,35.72h-1.5V1488.9h1.5Zm4.36,0h-1.51V1488.9h1.51Zm4.36,0H710V1488.9h1.51Z" transform="translate(-699.5 -1445.98)"/></svg>