<svg id="Layer_1" data-name="Layer 1" xmlns="http://www.w3.org/2000/svg" viewBox="0 0 71.33 71.34"><defs><style>.cls-1{fill:#f1a803;}</style></defs><title>rma</title><path class="cls-1" d="M700.07,1318.53a21.23,21.23,0,1,0,21.23-21.23A21.25,21.25,0,0,0,700.07,1318.53Zm36-1.29a14.85,14.85,0,1,1-16.08-13.5A14.84,14.84,0,0,1,736.09,1317.24Z" transform="translate(-685.63 -1282.86)"/><path class="cls-1" d="M750.41,1330.27l3.51-.14a2.15,2.15,0,0,0,1.87-1.49l1.16-5.56a2.17,2.17,0,0,0-1.12-2.12l-3.17-1.53a2.66,2.66,0,0,1-1.35-2.14s0-.4-.09-1.36l0-.33c0-.36.48-1,1.17-1.45l3-1.88a2.16,2.16,0,0,0,.88-2.23l-1.76-5.39a2.16,2.16,0,0,0-2-1.28l-3.52.26a2.52,2.52,0,0,1-2.15-1c-.37-.6-1.13-2.71-.75-3.44l1.64-3.1a2.15,2.15,0,0,0-.36-2.37l-4.22-3.78a2.18,2.18,0,0,0-2.4-.1l-2.91,2a2.51,2.51,0,0,1-2.36.22c-.62-.34-2.34-1.8-2.37-2.62l-.14-3.5a2.15,2.15,0,0,0-1.49-1.88l-5.55-1.16a2.16,2.16,0,0,0-2.12,1.12l-1.53,3.17a2.66,2.66,0,0,1-2.14,1.35s-.41,0-1.37.09l-.33,0c-.36,0-1-.48-1.44-1.17l-1.88-3a2.17,2.17,0,0,0-2.24-.88l-5.39,1.76a2.15,2.15,0,0,0-1.27,2l.25,3.52a2.51,2.51,0,0,1-1,2.15c-.61.37-2.71,1.13-3.44.75l-3.11-1.64a2.16,2.16,0,0,0-2.37.36l-3.78,4.23a2.15,2.15,0,0,0-.09,2.39l2,2.92a2.49,2.49,0,0,1,.21,2.35c-.34.62-1.79,2.33-2.61,2.37l-3.51.14a2.16,2.16,0,0,0-1.88,1.49l-1.15,5.56a2.16,2.16,0,0,0,1.12,2.11l3.17,1.54a2.63,2.63,0,0,1,1.35,2.13s0,.41.09,1.37l0,.33c.05.36-.48,1-1.17,1.45l-3,1.88a2.14,2.14,0,0,0-.88,2.23l1.76,5.39a2.15,2.15,0,0,0,2,1.27l3.51-.25a2.51,2.51,0,0,1,2.16,1c.36.6,1.12,2.71.74,3.44L695,1341a2.17,2.17,0,0,0,.35,2.37l4.23,3.78a2.16,2.16,0,0,0,2.4.09l2.91-2a2.51,2.51,0,0,1,2.36-.21c.61.34,2.33,1.79,2.36,2.61l.14,3.51a2.18,2.18,0,0,0,1.49,1.88l5.56,1.15a2.16,2.16,0,0,0,2.12-1.12l1.53-3.16a2.65,2.65,0,0,1,2.14-1.36s.41,0,1.37-.09l.33,0c.36,0,1,.48,1.44,1.17l1.88,3a2.16,2.16,0,0,0,2.23.88l5.39-1.76a2.17,2.17,0,0,0,1.28-2l-.25-3.52a2.48,2.48,0,0,1,1-2.15c.6-.37,2.71-1.13,3.44-.75l3.11,1.63a2.17,2.17,0,0,0,2.37-.35l3.78-4.23a2.16,2.16,0,0,0,.09-2.4l-2-2.91a2.49,2.49,0,0,1-.21-2.35C748.13,1332,749.59,1330.3,750.41,1330.27Zm-29.11,12.45a24.19,24.19,0,1,1,24.19-24.19A24.22,24.22,0,0,1,721.3,1342.72Z" transform="translate(-685.63 -1282.86)"/></svg>