<svg id="Layer_1" data-name="Layer 1" xmlns="http://www.w3.org/2000/svg" viewBox="0 0 35.38 35.38"><defs><style>.cls-1{fill:#fff;}</style></defs><title>user</title><circle cx="719.66" cy="1480.34" r="17.69" transform="translate(-1218.6 -1069.01) rotate(-22.76)"/><path class="cls-1" d="M724.69,1472a5,5,0,1,1-5-5A5,5,0,0,1,724.69,1472Z" transform="translate(-701.96 -1462.65)"/><path class="cls-1" d="M719.66,1478.77h0a9.35,9.35,0,0,0-9.35,9.35h0a2.45,2.45,0,0,0,2.45,2.45h13.79a2.45,2.45,0,0,0,2.45-2.45h0A9.35,9.35,0,0,0,719.66,1478.77Z" transform="translate(-701.96 -1462.65)"/></svg>