<svg id="Layer_1" data-name="Layer 1" xmlns="http://www.w3.org/2000/svg" viewBox="0 0 58.18 66.47"><defs><style>.cls-1{fill:#f1a803;}</style></defs><title>warranty</title><path class="cls-1" d="M721.29,1285.3h0a56.39,56.39,0,0,0-10.94,3.29c-5.22,2-10.33,2.74-14.6,3.85s-3.46,6.18-3.46,6.18,1.59,20.56,2.24,24c3.09,16.19,26.45,29.2,26.45,29.2h0s23.81-12.62,27-29.11c.68-3.47,2.34-24.52,2.34-24.52s.82-5.22-3.62-6.25-9.7-1.65-15-3.56-8.75-2.91-10.32-3h-.05Zm8.42,7.56a78.63,78.63,0,0,0,11.53,2.92s3.16.76,3.71.88c0,0,.13,0,.09.86,0,.14,0,.16,0,.31-.64,8-1.81,21.63-2.26,24-1.39,7.1-7.81,13.66-12.93,17.89a80,80,0,0,1-8.88,6.35,81.57,81.57,0,0,1-8.68-6.38c-5.09-4.3-11.4-10.88-12.75-17.92-.44-2.29-1.57-15.63-2.18-23.5a3,3,0,0,0,0-.31,3.4,3.4,0,0,1,.05-1c1.12-.28,2.33-.54,3.61-.82a74.53,74.53,0,0,0,11.26-3.1,64.36,64.36,0,0,1,9-2.86A69.24,69.24,0,0,1,729.71,1292.86Z" transform="translate(-692.19 -1285.29)"/><path class="cls-1" d="M721.2,1292h0a39.54,39.54,0,0,0-8.1,2.55c-3.87,1.56-7.67,2.13-10.84,3s-2.58,4.85-2.58,4.85,1.19,16.17,1.67,18.83c2.3,12.72,19.62,22.88,19.62,22.88h0s17.56-9.94,19.93-22.83c.5-2.71,1.73-19.16,1.73-19.16s.6-4.08-2.66-4.9-7.15-1.31-11.08-2.82-6.46-2.3-7.62-2.39h0Z" transform="translate(-692.19 -1285.29)"/></svg>