<svg id="Layer_1" data-name="Layer 1" xmlns="http://www.w3.org/2000/svg" viewBox="0 0 55.08 81.14"><defs><style>.cls-1{fill:#f1a803;}</style></defs><title>where-to-buy</title><path class="cls-1" d="M744.17,1486.86l.47-.73.06-.11c.35-.65.89-1.6.92-1.65a29.34,29.34,0,0,0,3.22-13.42q0-.75,0-1.5c0-.22,0-.43,0-.64l0-.43,0-.4a4.52,4.52,0,0,0-.06-.53l0-.38c0-.18,0-.36-.06-.55l-.06-.42-.06-.37c0-.2-.06-.41-.1-.61s-.06-.33-.1-.49l-.09-.44-.09-.45c0-.22-.11-.43-.16-.64l-.09-.37-.09-.34-.21-.69-.09-.29c0-.11-.07-.22-.1-.32l-.24-.68-.11-.29c0-.11-.07-.21-.11-.31s-.2-.49-.31-.74l-.11-.27c0-.08-.07-.16-.1-.23-.14-.33-.3-.65-.46-1l-.11-.23c-.16-.31-.33-.63-.54-1l-.09-.15c-.19-.33-.39-.65-.62-1l-.06-.1c-.21-.32-.43-.64-.67-1l-.06-.1c-.24-.33-.49-.65-.73-1l-.06-.08c-.26-.32-.54-.65-.83-1s-.58-.63-.89-.93h0c-5-5-11.89-7.67-19.91-7.67-16.22,0-27.54,11.33-27.54,27.54a29.54,29.54,0,0,0,3.7,14.32l.41.76a.41.41,0,0,1,0,.09l.7,1.06a2.94,2.94,0,0,0,.19.29l17.62,29.61h0l4.08,6.87a1.23,1.23,0,0,0,1,.6h0a1.26,1.26,0,0,0,1.05-.61l4-6.86h0l17.18-29.57C743.91,1487.29,744,1487.08,744.17,1486.86Zm-7.44-15.6c0,.15,0,.29-.07.43l0,.37q0,.38-.12.75c0,.18-.09.37-.14.56l-.1.4a5,5,0,0,1-.14.52c-.07.23-.16.46-.24.69l-.14.36c0,.13-.09.25-.14.38s-.25.55-.39.83l-.12.24a2.44,2.44,0,0,1-.14.28,10.42,10.42,0,0,1-.61,1,2.4,2.4,0,0,1-.16.27c-.24.35-.5.7-.77,1l-.11.14c-.29.35-.61.71-.95,1.06a15.49,15.49,0,0,1-11,4.65h-.15a15.58,15.58,0,1,1,0-31.15h.16a15.45,15.45,0,0,1,10.89,4.61l.07.07c.35.35.65.69.93,1a1.13,1.13,0,0,1,.1.13c.28.35.54.7.78,1.06a1.32,1.32,0,0,1,.12.2c.26.4.47.73.65,1.07,0,.1.1.19.14.29l.06.12c.18.36.33.65.45,1,.06.13.1.26.15.39l.13.35c.08.23.17.45.24.68a4.58,4.58,0,0,1,.14.53l.1.39c0,.19.1.38.14.57s.09.49.12.74l.06.37.06.43c0,.52.08,1.06.08,1.59S736.78,1470.74,736.73,1471.26Z" transform="translate(-693.76 -1443.41)"/></svg>