<svg id="Layer_1" data-name="Layer 1" xmlns="http://www.w3.org/2000/svg" viewBox="0 0 35.38 35.38"><defs><style>.cls-1{fill:#fff;}</style></defs><title>youtube</title><circle cx="17.69" cy="17.69" r="17.69"/><path class="cls-1" d="M620.06,1240.44a4.25,4.25,0,0,0-4.25-4.25H605a4.25,4.25,0,0,0-4.25,4.25v5a4.25,4.25,0,0,0,4.25,4.25h10.86a4.25,4.25,0,0,0,4.25-4.25Zm-6.39,2.9-4.87,2.41c-.19.11-.84,0-.84-.25v-4.94c0-.22.65-.36.84-.25l4.67,2.53C613.66,1243,613.87,1243.24,613.67,1243.34Z" transform="translate(-592.9 -1225.27)"/></svg>